<?xml version="1.0" encoding="UTF-8" standalone="no"?>
<!-- Created with Inkscape (http://www.inkscape.org/) -->

<svg
   width="512"
   height="512"
   viewBox="0 0 512 512"
   version="1.1"
   id="svg1"
   xml:space="preserve"
   xmlns="http://www.w3.org/2000/svg"
   xmlns:svg="http://www.w3.org/2000/svg"><defs
     id="defs1" /><g
     id="layer1"><path
       style="fill:#48c073;fill-opacity:1;stroke:none;stroke-width:1.94673;stroke-linecap:round;stroke-linejoin:round"
       d="M 182.86148,298.98362 71.962813,442.81413 186.80205,160.50101 305.86328,338.6707 398.74794,129.258 316.55909,198.49931 453.07141,55.513196 301.92273,372.16548 195.80903,193.71432 105.45758,379.2022 Z"
       id="path1" /><path
       style="fill:#383f4e;fill-opacity:1;stroke:none;stroke-width:1.94673;stroke-linecap:round;stroke-linejoin:round"
       d="m 86.853293,293.45353 c 0,0 -58.719251,27.26104 -44.582359,38.61153 17.844103,14.32697 115.886266,6.25231 229.815386,-20.83556 106.44684,-25.30889 175.19674,-55.00014 194.11514,-83.05728 14.19548,-21.05275 -63.84225,-13.69881 -63.84225,-13.69881 0,0 79.6157,-14.86196 81.75481,9.71824 4.46248,51.27772 -157.0368,101.01964 -209.74967,110.96956 -60.97769,11.50996 -85.36602,18.91658 -152.23816,23.36332 -26.844206,1.78504 -60.992034,-0.46899 -71.166303,-1.91655 -32.659436,-4.64665 -69.193594,-20.1643 35.893406,-63.15445 z"
       id="path2" /></g></svg>
