<?xml version="1.0" encoding="UTF-8" standalone="no"?>
<!-- Created with Inkscape (http://www.inkscape.org/) -->

<svg
   width="569.35596"
   height="147.6129"
   viewBox="0 0 569.35596 147.6129"
   version="1.1"
   id="svg1"
   xmlns:xlink="http://www.w3.org/1999/xlink"
   xmlns="http://www.w3.org/2000/svg"
   xmlns:svg="http://www.w3.org/2000/svg">
  <defs
     id="defs1">
    <linearGradient
       id="linearGradient4035">
      <stop
         style="stop-color:#01adb0;stop-opacity:1;"
         offset="0"
         id="stop4034" />
      <stop
         style="stop-color:#3f1986;stop-opacity:1;"
         offset="1"
         id="stop4035" />
    </linearGradient>
    <linearGradient
       id="linearGradient4037">
      <stop
         style="stop-color:#05a3ae;stop-opacity:1;"
         offset="0"
         id="stop4036" />
      <stop
         style="stop-color:#a408ae;stop-opacity:1;"
         offset="1"
         id="stop4037" />
    </linearGradient>
    <linearGradient
       xlink:href="#linearGradient4035"
       id="linearGradient4036-5"
       gradientUnits="userSpaceOnUse"
       gradientTransform="rotate(-179.52871,465.59025,349.24394)"
       x1="301.27988"
       y1="361.86285"
       x2="484.06339"
       y2="361.86285" />
    <linearGradient
       xlink:href="#linearGradient4037"
       id="linearGradient4023-9-1-6-9"
       x1="301.27988"
       y1="361.86285"
       x2="484.06339"
       y2="361.86285"
       gradientUnits="userSpaceOnUse" />
  </defs>
  <g
     id="layer1"
     transform="translate(596.86847,243.23021)">
    <g
       id="g4035-7-0"
       style="display:inline"
       transform="matrix(0.47460533,0,0,0.47460533,-739.85748,-335.49254)">
      <path
         style="display:inline;fill:url(#linearGradient4036-5);stroke-width:5.108;stroke-linecap:round;stroke-linejoin:round"
         d="m 446.63425,298.95395 c 0,0 43.86008,170.27373 95.46039,181.51761 54.25113,11.82151 105.19831,-261.47386 83.86135,-284.32319 -21.70684,-23.24544 -114.983,194.33676 -179.32174,102.80558 z"
         id="path4022-1-8-6-4-9" />
      <path
         style="display:inline;opacity:1;fill:url(#linearGradient4023-9-1-6-9);stroke-width:5.108;stroke-linecap:round;stroke-linejoin:round"
         d="m 484.06338,405.70325 c 0,0 -44.3633,-176.23415 -96.05435,-187.05321 -54.34654,-11.37486 -103.04399,262.33033 -81.51981,285.00338 21.89731,23.0661 112.4847,-188.94903 177.57416,-97.95017 z"
         id="path4022-4-1-5-3" />
    </g>
    <path
       style="font-weight:600;font-size:13.3333px;font-family:Basenji;-inkscape-font-specification:'Basenji Semi-Bold';letter-spacing:0.36px;word-spacing:-0.78px;white-space:pre;fill:#07a0ac;fill-opacity:1;stroke-width:32.7962;stroke-linecap:round;stroke-linejoin:round"
       d="m -367.30558,-143.89258 v -24.9974 c 0,-19.00478 -8.07045,-32.46145 -28.87301,-32.46145 -20.88818,0 -28.82635,13.45667 -28.82635,32.46145 v 24.9974 h 17.3783 v -27.13755 c 0,-7.79027 2.22582,-14.72448 11.30019,-14.72448 8.98881,0 11.38578,6.93421 11.38578,14.72448 v 27.13755 z m 8.13272,-57.44257 v 28.33602 c 0,17.54953 9.93046,30.64745 28.336,30.64745 18.32,0 28.42167,-13.09792 28.42167,-30.64745 v -28.33602 h -17.12146 v 28.25044 c 0,7.27659 -2.65385,13.61159 -10.95772,13.61159 -8.47515,0 -11.04338,-6.24932 -11.04338,-13.61159 v -28.25044 z m 94.38591,0.0405 c -17.3783,0 -29.83794,11.25969 -29.83794,28.72355 0,17.37825 12.58431,30.21936 29.87686,30.21936 9.75915,0 17.72077,-4.02355 23.54207,-11.64258 l -12.75546,-10.27289 c -2.73941,3.25312 -6.24936,5.05087 -10.70087,5.05087 -7.7903,0 -12.49872,-5.65012 -12.49872,-13.35476 0,-7.79028 4.70842,-13.3547 12.5843,-13.3547 4.36593,0 7.96147,1.71211 10.61529,4.9652 l 12.44381,-9.89898 c -5.94579,-7.18273 -13.59576,-10.43507 -23.26934,-10.43507 z m 30.17268,-0.0405 v 31.24673 c 0,15.5805 7.36224,27.3087 23.88439,27.3087 2.56825,0 4.87958,-0.25685 7.10533,-0.94172 v -17.12146 c -1.19845,0.51367 -2.39691,0.68488 -3.68095,0.68488 -7.27665,0 -9.67374,-4.79403 -9.67374,-11.47135 v -29.70578 z m 38.55639,41.34011 c 0,10.78654 6.21626,16.10246 16.66023,16.10246 h 26.11031 v -14.63889 h -20.1177 c -3.16748,0 -3.07494,-1.16501 -3.01052,-4.84561 0.0582,-3.37802 -0.67076,-4.65678 2.49688,-4.65678 h 20.28885 v -10.18732 h -20.20328 c -2.82498,0 -2.63412,-1.39548 -2.63412,-4.47731 0,-3.59551 0.49395,-4.16899 3.40468,-4.16899 h 19.77521 v -14.46767 h -23.79898 c -10.10148,0 -18.97672,4.42585 -18.97672,15.46916 0,4.53723 0,20.82016 0,25.87095 z m 67.76781,-12.57603 c 0,-7.3622 2.65383,-13.69719 11.04336,-13.69719 8.47511,0 11.21452,6.24933 11.21452,13.69719 v 1.62652 h -22.25788 z m 39.208099,28.67849 v -28.76408 c 0,-17.37826 -9.58039,-28.7235 -27.729089,-28.7235 -18.23442,0 -28.08691,11.34524 -28.08691,28.7235 v 28.76408 h 16.6079 v -11.9851 h 22.25788 v 11.9851 z m 26.1959,-34.15735 c 0,-5.99249 2.48266,-9.2456 8.73202,-9.2456 4.62284,0 9.07435,1.88341 9.07435,7.2766 0,4.96529 -3.93803,6.24936 -8.21821,6.24936 h -9.58816 z m 0,18.06316 h 9.67358 c 5.05089,0 8.21837,0.94165 8.21837,6.76298 l 0.0161,4.70196 c 0,1.62652 -0.32553,2.95004 -0.33489,4.48252 l 17.79587,0.12853 c 0.0161,1.3e-4 -0.0161,-3.74857 -0.0161,-5.63194 v -5.82132 c 0.0856,-5.05078 -0.68481,-9.50238 -4.79399,-12.92666 3.42437,-3.68113 4.79399,-8.47512 4.79399,-13.35473 0,-15.32371 -12.32239,-19.91102 -26.10515,-19.91102 -16.60774,0 -26.88571,7.24113 -26.88571,24.53382 v 33.13005 h 17.63504 z"
       id="text4064-1-5"
       aria-label="NUCLEAR" />
    <g
       id="g4035-7-0-8"
       style="display:inline;fill:#ffffff;fill-opacity:1"
       transform="matrix(0.51085974,0,0,0.51085974,-211.09813,-212.06062)">
      <path
         style="display:inline;fill:#ffffff;fill-opacity:1;stroke-width:5.108;stroke-linecap:round;stroke-linejoin:round"
         d="m 446.63425,298.95395 c 0,0 43.86008,170.27373 95.46039,181.51761 54.25113,11.82151 105.19831,-261.47386 83.86135,-284.32319 -21.70684,-23.24544 -114.983,194.33676 -179.32174,102.80558 z"
         id="path4022-1-8-6-4-5" />
      <path
         style="display:inline;opacity:1;fill:#ffffff;fill-opacity:1;stroke-width:5.108;stroke-linecap:round;stroke-linejoin:round"
         d="m 484.06338,405.70325 c 0,0 -44.3633,-176.23415 -96.05435,-187.05321 -54.34654,-11.37486 -103.04399,262.33033 -81.51981,285.00338 21.89731,23.0661 112.4847,-188.94903 177.57416,-97.95017 z"
         id="path4022-4-1-5-9" />
    </g>
  </g>
</svg>
